# xmcd
#
# Track frame offsets:
# 150
# 15324
# 28200
# 42222
# 54838
# 64437
# 78201
# 92839
# 109401
# 122475
# 133811
# 151066
# 170200
# 183960
# 195771
# 211688
# 224841
# 238934
# 251863
# 263652
#
# Disc length: 3706 seconds
#
#
# Revision: 0
# Processed by: cddbd v1.5.1PL2 Copyright (c) Steve Scherf et al.
# Submitted via: FreeRIP 2.945 
#
DISCID=190e7814
DTITLE=Gene Watson - Love In The Hot Afternoon/Paper Rosie
DYEAR=2002
DGENRE=Country
TTITLE0=Love In The Hot Afternoon
TTITLE1=Through The Eyes Of Love
TTITLE2=Bad Water
TTITLE3=Long Enough To Care
TTITLE4=Harvest Time
TTITLE5=Where love begins
TTITLE6=This Just Ain't No Good Day for Leavin'
TTITLE7=For The First Time
TTITLE8=You Could Know As Much About A Stranger
TTITLE9=This Is My Year For Mexico
TTITLE10=Paper Rosie
TTITLE11=You Gave Me a Mountain
TTITLE12=If The Shoe Fits Wear It
TTITLE13=Tennessee Sunshine
TTITLE14=Desperation
TTITLE15=Til You Can Make It On Your Own
TTITLE16=Most of All Why
TTITLE17=Just At Dawn
TTITLE18=Don't Look At Me ( In That Tone Of Voice)
TTITLE19=I'd Settle For Just Crossing Her Mind
EXTD=
EXTT0=
EXTT1=
EXTT2=
EXTT3=
EXTT4=
EXTT5=
EXTT6=
EXTT7=
EXTT8=
EXTT9=
EXTT10=
EXTT11=
EXTT12=
EXTT13=
EXTT14=
EXTT15=
EXTT16=
EXTT17=
EXTT18=
EXTT19=
PLAYORDER=
